<?xml version="1.0" encoding="utf-8"?>
<!-- Generator: Adobe Illustrator 23.0.3, SVG Export Plug-In . SVG Version: 6.00 Build 0)  -->
<svg version="1.1"
	 id="Layer_1" inkscape:version="0.91 r13725" sodipodi:docname="Warner_Bros._2.svg" xmlns:cc="http://creativecommons.org/ns#" xmlns:dc="http://purl.org/dc/elements/1.1/" xmlns:inkscape="http://www.inkscape.org/namespaces/inkscape" xmlns:rdf="http://www.w3.org/1999/02/22-rdf-syntax-ns#" xmlns:sodipodi="http://sodipodi.sourceforge.net/DTD/sodipodi-0.dtd" xmlns:svg="http://www.w3.org/2000/svg"
	 xmlns="http://www.w3.org/2000/svg" xmlns:xlink="http://www.w3.org/1999/xlink" x="0px" y="0px" viewBox="0 0 820.2 1000"
	 style="enable-background:new 0 0 820.2 1000;" xml:space="preserve">
<style type="text/css">
	.st0{fill:#FFFFFF;}
</style>
<g>
	<path d="M817.4,167.6l-86.9-21.1l-14.4-46.4l-83.7-18.2l-12.3-48.1c0,0-110.5-19-137.6-23.3c-27-4.3-53.3-9.9-72.3-10.5
		c-19.2,0.6-45.4,6.3-72.5,10.5C310.5,14.8,200,33.9,200,33.9l-12.3,48.1l-83.7,18.2l-14.4,46.4L2.8,167.6c0,0-5.3,16.2-1.4,148.4
		c1.9,63,17.6,156.5,40.4,240.2c22.9,83.8,75.8,173.9,100.1,210.9c24.2,37.3,89.5,107.3,133.3,146.3c37.8,33.5,111,83.7,134.9,86.5
		c23.7-2.8,97-53,134.7-86.5c43.8-39.1,109.1-109.1,133.5-146.3c24.2-37,77.1-127.1,99.9-210.9C801,472.5,816.9,379,818.7,316
		C822.8,183.8,817.4,167.6,817.4,167.6z"/>
	<path class="st0" d="M798,183.5l-82.7-20l-13.8-44.2l-79.7-17.4L610,56c0,0-105.2-18.1-131.1-22.1c-25.9-4.2-50.8-9.5-68.9-10
		c-18.2,0.5-43.1,5.8-69.1,10c-25.8,4-131,22.1-131,22.1l-11.8,45.9l-79.6,17.4l-13.9,44.2l-82.6,20c0,0-5,15.4-1.3,141.3
		c1.8,59.9,16.8,149,38.7,228.8c21.7,79.8,72.1,165.5,95.2,200.9c23.1,35.4,85.2,102,126.9,139.2c36,32,105.8,79.8,128.5,82.5
		c22.6-2.7,92.3-50.5,128.3-82.5c41.8-37.2,104-103.8,127-139.2c23.2-35.4,73.5-121.1,95.3-200.9c21.8-79.8,36.8-168.9,38.5-228.8
		C802.9,198.9,798,183.5,798,183.5z"/>
	<path d="M742.4,265.2c0-12.2-2.1-40.2-2.1-40.2l-75.9-17.6l-15-44.3L571,144.1l-11.3-39.7c0,0-23.1-7.1-68.5-14.9
		c-25.1-4.2-71.2-12.8-80.8-12.8c-9.6,0-55.6,8.6-81,12.8c-45.2,7.7-68.3,14.9-68.3,14.9l-11.4,39.7L171.4,163l-15.1,44.3
		l-75.9,17.6c0,0-2,28-2.1,40.2c-0.5,36.3-1,101.6,21.7,218.2c14.2,72.7,63.5,170.9,88.9,214.1c25.4,43,47.4,71.2,78.9,102.4
		c65.7,65.1,115.7,99.3,142.5,111.7c26.7-12.3,76.8-46.5,142.5-111.7c31.5-31.1,53.5-59.4,78.9-102.4
		c25.4-43.2,74.8-141.4,88.9-214.1C743.5,366.7,742.9,301.4,742.4,265.2z"/>
	<path class="st0" d="M384.1,144.2c-1.9,0-3.7,0.4-4.8,0.7c-3.6,0.9-27.2,5.6-33.3,7.8c-6,2.3-9.6,6.3-9.1,13
		c0.3,6.9-1.5,146.6-1.4,182c0,35.5-0.6,229.4-0.8,240.9c-0.2,11.3-5.1,17.2-9.1,3.5c-3.9-13.7-17.2-77.7-21.7-133.6
		c-4.4-55.9-9.8-118-9.8-167.4c0.3-49.5,0.4-107.5,0.4-112.1c0.2-4.5-5.7-8.3-13-5.1c-7.3,3.1-35.2,14.1-38.7,17.3
		c-3.7,3-6.5,9.4-6.1,18.4c0.2,9.1-0.8,78.6,0.2,98c1.3,19.5,2.9,84.4,5.5,103.1c2.5,18.5,5.3,53.9,5.6,61.6
		c0.5,7.7-3,13.6-5.4,17.6c-1,2-7.1,15.3-9,17.7c-1.8,2.3-8.6,1.5-11.5-8.3c-7.6-24.9-19.4-68-25.2-121.5
		c-5.5-51-6.8-135.6-6.3-138.9c0.5-3.1-1.7-10.4-12.7-1.8c-11,8.4-34.4,29.6-37.5,34.1c-3.3,4.4-4.4,12.2-3.6,30.7
		c0.7,18.6,6.3,103,15.4,149.8c9,46.8,35.6,141.4,62.9,174.4c7.1,8.7,9.1,3.8,13.6-3c4.5-6.7,22.2-42.9,26-47.8
		c3.6-4.8,7.6-8.9,9.9,2.4c2.1,11.3,20.6,75,28.4,97.8c7.8,22.8,33.2,97.2,86.7,158.4c8.4,9.5,12.2,7.7,12.5-4.1
		c0-11.7,0.4-620.5,0.9-672.6C393.3,146.5,388.3,144.3,384.1,144.2z"/>
	<path class="st0" d="M612.6,220.5C554.7,178.6,495,155.7,459,147.1c-9.2-2.2-14.5-1.9-14.5-1.9s-7.2,1.9-7.2,7.7
		c-0.1,7.4-9.4,669.2-7.5,676.6c2.7,10.5,2.7,15,17.6,3.9c30-22.1,94.3-83,144.1-164.1c47.6-77.4,68-150.2,50.1-185
		c-15-28.9-28.3-35.7-38.1-44.5c-4.7-3.9,22.4-23.2,33-32.3c10.5-8.9,46.2-35.8,44.4-83C679,277.3,658.2,253.5,612.6,220.5z
		 M563.1,605c-14.7,32.7-49.2,80.7-57.3,89.6c-7.7,9-10.9,6.1-11.2-1.4c-0.4-7.7,0-162.8,0.4-172.3c0.5-9.5,1.5-14.9,4.8-18.2
		c3.2-3,12.2-10.3,26.4-15.6c5.6-2.1,11.5-3.2,17.4-3.1c13,0.2,25.9,6.3,35.4,20.9C593.9,527.3,579.9,568,563.1,605z M574.5,387.8
		c-18.8,14.4-46,28.6-61.5,35.6c-15.5,7.3-15.9,0.4-17.4-5.9c-1.1-6.5,1.5-180.5,2.1-186.9c0.3-4.3,2.8-6.1,6.9-6.1
		c14.5,0,48.9,23.3,74.8,41.4c31.6,22.1,39.4,40.4,39.7,60.8C619.2,349.3,593.2,373.6,574.5,387.8z"/>
</g>
</svg>
